<svg width="64.791" height="64.788788" viewBox="0 0 64.791 64.788791" version="1.1" xmlns="http://www.w3.org/2000/svg"><path d="m 55.205,55.204412 h -9.6 v -15.034 c 0,-3.585 -0.064,-8.2 -4.993,-8.2 -5,0 -5.765,3.906 -5.765,7.939 v 15.294 h -9.6 v -30.916 h 9.216 v 4.225 h 0.129 a 10.1,10.1 0 0 1 9.093,-4.994 c 9.73,0 11.524,6.4 11.524,14.726 z m -40.79,-35.143 a 5.571,5.571 0 1 1 5.57,-5.572 5.571,5.571 0 0 1 -5.57,5.572 m 4.8,35.143 h -9.61 v -30.917 h 9.61 z M 59.991,0.00441201 H 4.781 A 4.728,4.728 0 0 0 0,4.674412 v 55.439 a 4.731,4.731 0 0 0 4.781,4.675 h 55.21 a 4.741,4.741 0 0 0 4.8,-4.675 v -55.443 a 4.738,4.738 0 0 0 -4.8,-4.66999999257" fill="#0a66c2"/></svg>