<?xml version="1.0" encoding="UTF-8" standalone="no"?>
<!-- Created with Inkscape (http://www.inkscape.org/) -->

<svg
   width="29.703484mm"
   height="12.293406mm"
   viewBox="0 0 29.703484 12.293406"
   version="1.1"
   id="svg1"
   inkscape:version="1.3 (0e150ed6c4, 2023-07-21)"
   xmlns:inkscape="http://www.inkscape.org/namespaces/inkscape"
   xmlns:sodipodi="http://sodipodi.sourceforge.net/DTD/sodipodi-0.dtd"
   xmlns="http://www.w3.org/2000/svg"
   xmlns:svg="http://www.w3.org/2000/svg">
  <sodipodi:namedview
     id="namedview1"
     pagecolor="#ffffff"
     bordercolor="#666666"
     borderopacity="1.0"
     inkscape:showpageshadow="2"
     inkscape:pageopacity="0.0"
     inkscape:pagecheckerboard="0"
     inkscape:deskcolor="#d1d1d1"
     inkscape:document-units="mm"
     inkscape:zoom="10.109087"
     inkscape:cx="49.905593"
     inkscape:cy="-14.887595"
     inkscape:current-layer="layer1" />
  <defs
     id="defs1">
    <clipPath
       clipPathUnits="userSpaceOnUse"
       id="clipPath89-7">
      <path
         d="M 0,0 H 3019.23 V 2123.2 H 0 Z"
         transform="matrix(9.9999978,0,0,9.9999978,2.1966431e-4,0)"
         id="path89-6" />
    </clipPath>
    <clipPath
       clipPathUnits="userSpaceOnUse"
       id="clipPath90-7">
      <path
         d="M 0,0 H 3019.23 V 2123.2 H 0 Z"
         transform="matrix(9.9999978,0,0,9.9999978,2.1966431e-4,0)"
         id="path90-6" />
    </clipPath>
    <clipPath
       clipPathUnits="userSpaceOnUse"
       id="clipPath91-7">
      <path
         d="M 0,0 H 3019.23 V 2123.2 H 0 Z"
         transform="matrix(9.9999978,0,0,9.9999978,2.1966431e-4,0)"
         id="path91-9" />
    </clipPath>
    <clipPath
       clipPathUnits="userSpaceOnUse"
       id="clipPath92-8">
      <path
         d="M 0,0 H 3019.23 V 2123.2 H 0 Z"
         transform="matrix(9.9999978,0,0,9.9999978,2.1966431e-4,0)"
         id="path92-9" />
    </clipPath>
    <clipPath
       clipPathUnits="userSpaceOnUse"
       id="clipPath93-6">
      <path
         d="M 0,0 H 3019.23 V 2123.2 H 0 Z"
         transform="matrix(9.9999978,0,0,9.9999978,2.1966431e-4,0)"
         id="path93-3" />
    </clipPath>
    <clipPath
       clipPathUnits="userSpaceOnUse"
       id="clipPath94-8">
      <path
         d="M 0,0 H 3019.23 V 2123.2 H 0 Z"
         transform="matrix(9.9999978,0,0,9.9999978,2.1966431e-4,0)"
         id="path94-6" />
    </clipPath>
    <clipPath
       clipPathUnits="userSpaceOnUse"
       id="clipPath95-0">
      <path
         d="M 0,0 H 3019.23 V 2123.2 H 0 Z"
         transform="matrix(9.9999978,0,0,9.9999978,2.1966431e-4,0)"
         id="path95-3" />
    </clipPath>
    <clipPath
       clipPathUnits="userSpaceOnUse"
       id="clipPath96-1">
      <path
         d="M 0,0 H 3019.23 V 2123.2 H 0 Z"
         transform="matrix(9.9999978,0,0,9.9999978,2.1966431e-4,0)"
         id="path96-5" />
    </clipPath>
    <clipPath
       clipPathUnits="userSpaceOnUse"
       id="clipPath97-3">
      <path
         d="M 0,0 H 3019.23 V 2123.2 H 0 Z"
         transform="matrix(9.9999978,0,0,9.9999978,2.1966431e-4,0)"
         id="path97-7" />
    </clipPath>
    <clipPath
       clipPathUnits="userSpaceOnUse"
       id="clipPath98-3">
      <path
         d="M 0,0 H 3019.23 V 2123.2 H 0 Z"
         transform="matrix(9.9999978,0,0,9.9999978,2.1966431e-4,0)"
         id="path98-1" />
    </clipPath>
    <clipPath
       clipPathUnits="userSpaceOnUse"
       id="clipPath99-2">
      <path
         d="M 0,0 H 3019.23 V 2123.2 H 0 Z"
         transform="matrix(9.9999978,0,0,9.9999978,2.1966431e-4,0)"
         id="path99-8" />
    </clipPath>
    <clipPath
       clipPathUnits="userSpaceOnUse"
       id="clipPath100-3">
      <path
         d="M 0,0 H 3019.23 V 2123.2 H 0 Z"
         transform="matrix(9.9999978,0,0,9.9999978,2.1966431e-4,0)"
         id="path100-5" />
    </clipPath>
    <clipPath
       clipPathUnits="userSpaceOnUse"
       id="clipPath101-8">
      <path
         d="M 0,0 H 3019.23 V 2123.2 H 0 Z"
         transform="matrix(9.9999978,0,0,9.9999978,2.1966431e-4,0)"
         id="path101-8" />
    </clipPath>
    <clipPath
       clipPathUnits="userSpaceOnUse"
       id="clipPath102-4">
      <path
         d="M 0,0 H 3019.23 V 2123.2 H 0 Z"
         transform="matrix(9.9999978,0,0,9.9999978,2.1966431e-4,0)"
         id="path102-4" />
    </clipPath>
    <clipPath
       clipPathUnits="userSpaceOnUse"
       id="clipPath103-9">
      <path
         d="M 0,0 H 3019.23 V 2123.2 H 0 Z"
         transform="matrix(9.9999978,0,0,9.9999978,2.1966431e-4,0)"
         id="path103-1" />
    </clipPath>
    <clipPath
       clipPathUnits="userSpaceOnUse"
       id="clipPath104-3">
      <path
         d="M 0,0 H 3019.23 V 2123.2 H 0 Z"
         transform="matrix(9.9999978,0,0,9.9999978,2.1966431e-4,0)"
         id="path104-8" />
    </clipPath>
    <clipPath
       clipPathUnits="userSpaceOnUse"
       id="clipPath105-3">
      <path
         d="M 0,0 H 3019.23 V 2123.2 H 0 Z"
         transform="matrix(9.9999978,0,0,9.9999978,2.1966431e-4,0)"
         id="path105-3" />
    </clipPath>
    <clipPath
       clipPathUnits="userSpaceOnUse"
       id="clipPath106-3">
      <path
         d="M 0,0 H 3019.23 V 2123.2 H 0 Z"
         transform="matrix(9.9999978,0,0,9.9999978,2.1966431e-4,0)"
         id="path106-6" />
    </clipPath>
    <clipPath
       clipPathUnits="userSpaceOnUse"
       id="clipPath107-6">
      <path
         d="M 0,0 H 3019.23 V 2123.2 H 0 Z"
         transform="matrix(9.9999978,0,0,9.9999978,2.1966431e-4,0)"
         id="path107-6" />
    </clipPath>
    <clipPath
       clipPathUnits="userSpaceOnUse"
       id="clipPath108-9">
      <path
         d="M 0,0 H 3019.23 V 2123.2 H 0 Z"
         transform="matrix(9.9999978,0,0,9.9999978,2.1966431e-4,0)"
         id="path108-3" />
    </clipPath>
    <clipPath
       clipPathUnits="userSpaceOnUse"
       id="clipPath109-8">
      <path
         d="M 0,0 H 3019.23 V 2123.2 H 0 Z"
         transform="matrix(9.9999978,0,0,9.9999978,2.1966431e-4,0)"
         id="path109-1" />
    </clipPath>
    <clipPath
       clipPathUnits="userSpaceOnUse"
       id="clipPath110-9">
      <path
         d="M 0,0 H 3019.23 V 2123.2 H 0 Z"
         transform="matrix(9.9999978,0,0,9.9999978,2.1966431e-4,0)"
         id="path110-4" />
    </clipPath>
    <clipPath
       clipPathUnits="userSpaceOnUse"
       id="clipPath111-4">
      <path
         d="M 0,0 H 3019.23 V 2123.2 H 0 Z"
         transform="matrix(9.9999978,0,0,9.9999978,2.1966431e-4,0)"
         id="path111-6" />
    </clipPath>
    <clipPath
       clipPathUnits="userSpaceOnUse"
       id="clipPath112-0">
      <path
         d="M 0,0 H 3019.23 V 2123.2 H 0 Z"
         transform="matrix(9.9999978,0,0,9.9999978,2.1966431e-4,0)"
         id="path112-6" />
    </clipPath>
    <clipPath
       clipPathUnits="userSpaceOnUse"
       id="clipPath113-9">
      <path
         d="M 0,0 H 3019.23 V 2123.2 H 0 Z"
         transform="matrix(9.9999978,0,0,9.9999978,2.1966431e-4,0)"
         id="path113-1" />
    </clipPath>
    <clipPath
       clipPathUnits="userSpaceOnUse"
       id="clipPath114-6">
      <path
         d="M 0,0 H 3019.23 V 2123.2 H 0 Z"
         transform="matrix(9.9999978,0,0,9.9999978,2.1966431e-4,0)"
         id="path114-0" />
    </clipPath>
    <clipPath
       clipPathUnits="userSpaceOnUse"
       id="clipPath115-2">
      <path
         d="M 0,0 H 3019.23 V 2123.2 H 0 Z"
         transform="matrix(9.9999978,0,0,9.9999978,2.1966431e-4,0)"
         id="path115-0" />
    </clipPath>
    <clipPath
       clipPathUnits="userSpaceOnUse"
       id="clipPath116-6">
      <path
         d="M 0,0 H 3019.23 V 2123.2 H 0 Z"
         transform="matrix(9.9999978,0,0,9.9999978,2.1966431e-4,0)"
         id="path116-1" />
    </clipPath>
    <clipPath
       clipPathUnits="userSpaceOnUse"
       id="clipPath117-0">
      <path
         d="M 0,0 H 3019.23 V 2123.2 H 0 Z"
         transform="matrix(9.9999978,0,0,9.9999978,2.1966431e-4,0)"
         id="path117-5" />
    </clipPath>
    <clipPath
       clipPathUnits="userSpaceOnUse"
       id="clipPath118-5">
      <path
         d="M 0,0 H 3019.23 V 2123.2 H 0 Z"
         transform="matrix(9.9999978,0,0,9.9999978,2.1966431e-4,0)"
         id="path118-2" />
    </clipPath>
    <clipPath
       clipPathUnits="userSpaceOnUse"
       id="clipPath119-8">
      <path
         d="M 0,0 H 3019.23 V 2123.2 H 0 Z"
         transform="matrix(9.9999978,0,0,9.9999978,2.1966431e-4,0)"
         id="path119-2" />
    </clipPath>
    <clipPath
       clipPathUnits="userSpaceOnUse"
       id="clipPath120-6">
      <path
         d="M 0,0 H 3019.23 V 2123.2 H 0 Z"
         transform="matrix(9.9999978,0,0,9.9999978,2.1966431e-4,0)"
         id="path120-8" />
    </clipPath>
    <clipPath
       clipPathUnits="userSpaceOnUse"
       id="clipPath121-7">
      <path
         d="M 0,0 H 3019.23 V 2123.2 H 0 Z"
         transform="matrix(9.9999978,0,0,9.9999978,2.1966431e-4,0)"
         id="path121-2" />
    </clipPath>
    <clipPath
       clipPathUnits="userSpaceOnUse"
       id="clipPath122-8">
      <path
         d="M 0,0 H 3019.23 V 2123.2 H 0 Z"
         transform="matrix(9.9999978,0,0,9.9999978,2.1966431e-4,0)"
         id="path122-9" />
    </clipPath>
    <clipPath
       clipPathUnits="userSpaceOnUse"
       id="clipPath123-9">
      <path
         d="M 0,0 H 3019.23 V 2123.2 H 0 Z"
         transform="matrix(9.9999978,0,0,9.9999978,2.1966431e-4,0)"
         id="path123-3" />
    </clipPath>
    <clipPath
       clipPathUnits="userSpaceOnUse"
       id="clipPath124-8">
      <path
         d="M 0,0 H 3019.23 V 2123.2 H 0 Z"
         transform="matrix(9.9999978,0,0,9.9999978,2.1966431e-4,0)"
         id="path124-8" />
    </clipPath>
    <clipPath
       clipPathUnits="userSpaceOnUse"
       id="clipPath125-5">
      <path
         d="M 0,0 H 3019.23 V 2123.2 H 0 Z"
         transform="matrix(9.9999978,0,0,9.9999978,2.1966431e-4,0)"
         id="path125-8" />
    </clipPath>
    <clipPath
       clipPathUnits="userSpaceOnUse"
       id="clipPath126-0">
      <path
         d="M 0,0 H 3019.23 V 2123.2 H 0 Z"
         transform="matrix(9.9999978,0,0,9.9999978,2.1966431e-4,0)"
         id="path126-4" />
    </clipPath>
    <clipPath
       clipPathUnits="userSpaceOnUse"
       id="clipPath127-7">
      <path
         d="M 0,0 H 3019.23 V 2123.2 H 0 Z"
         transform="matrix(9.9999978,0,0,9.9999978,2.1966431e-4,0)"
         id="path127-8" />
    </clipPath>
    <clipPath
       clipPathUnits="userSpaceOnUse"
       id="clipPath128-8">
      <path
         d="M 0,0 H 3019.23 V 2123.2 H 0 Z"
         transform="matrix(9.9999978,0,0,9.9999978,2.1966431e-4,0)"
         id="path128-9" />
    </clipPath>
    <clipPath
       clipPathUnits="userSpaceOnUse"
       id="clipPath129-6">
      <path
         d="M 0,0 H 3019.23 V 2123.2 H 0 Z"
         transform="matrix(9.9999978,0,0,9.9999978,2.1966431e-4,0)"
         id="path129-7" />
    </clipPath>
    <clipPath
       clipPathUnits="userSpaceOnUse"
       id="clipPath130-7">
      <path
         d="M 0,0 H 3019.23 V 2123.2 H 0 Z"
         transform="matrix(9.9999978,0,0,9.9999978,2.1966431e-4,0)"
         id="path130-1" />
    </clipPath>
    <clipPath
       clipPathUnits="userSpaceOnUse"
       id="clipPath131-0">
      <path
         d="M 0,0 H 3019.23 V 2123.2 H 0 Z"
         transform="matrix(9.9999978,0,0,9.9999978,2.1966431e-4,0)"
         id="path131-2" />
    </clipPath>
    <clipPath
       clipPathUnits="userSpaceOnUse"
       id="clipPath132-8">
      <path
         d="M 0,0 H 3019.23 V 2123.2 H 0 Z"
         transform="matrix(9.9999978,0,0,9.9999978,2.1966431e-4,0)"
         id="path132-8" />
    </clipPath>
  </defs>
  <g
     inkscape:label="Layer 1"
     inkscape:groupmode="layer"
     id="layer1"
     transform="translate(-141.81662,-141.28757)">
    <path
       d="m 11162.5,12979 c 6,12 15,18 26.3,18 15.9,0 30.2,-12 30.2,-24.8 0,-7.5 -4.6,-20.4 -12.1,-36.2 l 5.5,10.7 c -6,-11.3 -15,-17.3 -27,-17.3 -15.9,0 -29.4,12.8 -29.4,28.6 0,6 0.7,9.8 3.8,15.8 l 2.7,5.2"
       style="fill:#459ddc;fill-opacity:1;fill-rule:nonzero;stroke:none"
       transform="matrix(0.00401496,0,0,-0.00401496,97.898186,203.35524)"
       clip-path="url(#clipPath89-7)"
       id="path496" />
    <path
       d="m 11515.8,12979 c 6,12 15,18 26.3,18 15.8,0 30.1,-12 30.1,-24.8 0,-7.5 -2.6,-18.5 -10.2,-34.3 l -15.8,-31.2 c -6,-11.3 -15.1,-17.3 -27.1,-17.3 -15.8,0 -29.4,12.8 -29.4,28.6 0,6 0.8,9.8 3.8,15.8 l 22.3,45.2"
       style="fill:#459ddc;fill-opacity:1;fill-rule:nonzero;stroke:none"
       transform="matrix(0.00401496,0,0,-0.00401496,97.898186,203.35524)"
       clip-path="url(#clipPath90-7)"
       id="path497" />
    <path
       d="m 11869.1,12979 c 6,12 15,18 26.3,18 15.8,0 30.2,-12 30.2,-24.8 0,-7.5 -4.5,-20.4 -12.1,-36.2 l -37.2,-69.3 c -6.1,-11.4 -15.1,-17.4 -27.1,-17.4 -15.9,0 -29.4,12.8 -29.4,28.6 0,6.1 0.7,9.8 3.7,15.8 l 45.6,85.3"
       style="fill:#459ddc;fill-opacity:1;fill-rule:nonzero;stroke:none"
       transform="matrix(0.00401496,0,0,-0.00401496,97.898186,203.35524)"
       clip-path="url(#clipPath91-7)"
       id="path498" />
    <path
       d="m 12222.3,12979 c 6.1,12 15.1,18 26.4,18 15.8,0 30.1,-12 30.1,-24.8 0,-7.5 -4.5,-20.4 -12,-36.2 l -54.9,-109.4 c -6.1,-11.3 -15.1,-17.3 -27.1,-17.3 -15.9,0 -29.4,12.8 -29.4,28.6 0,6.1 0.8,9.8 3.7,15.8 l 63.2,125.3"
       style="fill:#459ddc;fill-opacity:1;fill-rule:nonzero;stroke:none"
       transform="matrix(0.00401496,0,0,-0.00401496,97.898186,203.35524)"
       clip-path="url(#clipPath92-8)"
       id="path499" />
    <path
       d="m 12574.7,12976.1 c 6,12.1 15.1,18.2 26.4,18.2 15.8,0 30.2,-12.1 30.2,-24.9 0,-7.5 -4.6,-20.3 -12.1,-36.1 l -74.5,-147.6 c -6,-11.3 -15.1,-17.3 -27.1,-17.3 -15.8,0 -29.4,12.7 -29.4,28.6 0,6 0.7,9.8 3.8,15.8 l 82.7,163.3"
       style="fill:#459ddc;fill-opacity:1;fill-rule:nonzero;stroke:none"
       transform="matrix(0.00401496,0,0,-0.00401496,97.898186,203.35524)"
       clip-path="url(#clipPath93-6)"
       id="path500" />
    <path
       d="m 12929,12979 c 5.9,12 15,18 26.3,18 15.8,0 30.2,-12 30.2,-24.8 0,-7.5 -4.6,-20.4 -12.1,-36.2 l -98.7,-193.2 c -6,-11.3 -15.1,-17.3 -27.1,-17.3 -15.9,0 -29.4,12.8 -29.4,28.7 0,6 0.8,9.7 3.8,15.7 l 107,209.1"
       style="fill:#459ddc;fill-opacity:1;fill-rule:nonzero;stroke:none"
       transform="matrix(0.00401496,0,0,-0.00401496,97.898186,203.35524)"
       clip-path="url(#clipPath94-8)"
       id="path501" />
    <path
       d="m 13282.3,12979 c 6,12 15,18 26.4,18 15.7,0 30.1,-12 30.1,-24.8 0,-7.5 -4.5,-20.4 -12.1,-36.2 l -117.3,-232.3 c -6.1,-11.3 -15.1,-17.3 -27.1,-17.3 -15.9,0 -29.4,12.8 -29.4,28.7 0,6 0.7,9.7 3.8,15.7 l 125.6,248.2"
       style="fill:#459ddc;fill-opacity:1;fill-rule:nonzero;stroke:none"
       transform="matrix(0.00401496,0,0,-0.00401496,97.898186,203.35524)"
       clip-path="url(#clipPath95-0)"
       id="path502" />
    <path
       d="m 13635.6,12979 c 6,12 15,18 26.3,18 15.8,0 30.2,-12 30.2,-24.8 0,-7.5 -4.6,-20.4 -12.2,-36.2 l -138.6,-273.3 c -6.1,-11.2 -15.1,-17.3 -27.2,-17.3 -15.8,0 -29.3,12.9 -29.3,28.7 0,6 0.7,9.8 3.8,15.8 l 147,289.1"
       style="fill:#459ddc;fill-opacity:1;fill-rule:nonzero;stroke:none"
       transform="matrix(0.00401496,0,0,-0.00401496,97.898186,203.35524)"
       clip-path="url(#clipPath96-1)"
       id="path503" />
    <path
       d="m 13988.9,12979 c 6,12 15,18 26.3,18 15.8,0 30.1,-12 30.1,-24.8 0,-7.5 -4.5,-20.4 -12,-36.2 l -160.1,-314.2 c -6.1,-11.3 -15.1,-17.3 -27.2,-17.3 -15.8,0 -29.3,12.8 -29.3,28.6 0,6 0.7,9.8 3.7,15.8 l 168.5,330.1"
       style="fill:#459ddc;fill-opacity:1;fill-rule:nonzero;stroke:none"
       transform="matrix(0.00401496,0,0,-0.00401496,97.898186,203.35524)"
       clip-path="url(#clipPath97-3)"
       id="path504" />
    <path
       d="m 14342.2,12979 c 6,12 15,18 26.3,18 15.9,0 30.2,-12 30.2,-24.8 0,-7.5 -4.6,-20.4 -12.1,-36.2 l -180.6,-353.3 c -6,-11.3 -15.1,-17.3 -27.1,-17.3 -15.8,0 -29.4,12.8 -29.4,28.6 0,6 0.8,9.8 3.7,15.8 l 189,369.2"
       style="fill:#459ddc;fill-opacity:1;fill-rule:nonzero;stroke:none"
       transform="matrix(0.00401496,0,0,-0.00401496,97.898186,203.35524)"
       clip-path="url(#clipPath98-3)"
       id="path505" />
    <path
       d="m 14695.5,12979 c 6,12 15,18 26.4,18 15.7,0 30,-12 30,-24.8 0,-7.5 -4.5,-20.4 -12,-36.2 l -202,-398 c -6.1,-11.2 -15.1,-17.3 -27.2,-17.3 -15.8,0 -29.3,12.8 -29.3,28.6 0,6 0.7,9.8 3.7,15.8 l 210.4,413.9"
       style="fill:#459ddc;fill-opacity:1;fill-rule:nonzero;stroke:none"
       transform="matrix(0.00401496,0,0,-0.00401496,97.898186,203.35524)"
       clip-path="url(#clipPath99-2)"
       id="path506" />
    <path
       d="m 15048.8,12979 c 6,12 15,18 26.4,18 15.7,0 30.1,-12 30.1,-24.8 0,-7.5 -4.5,-20.4 -12.1,-36.2 l -220.7,-432.4 c -6,-11.3 -15,-17.4 -27.1,-17.4 -15.8,0 -29.3,12.8 -29.3,28.7 0,6 0.7,9.8 3.7,15.8 l 229,448.3"
       style="fill:#459ddc;fill-opacity:1;fill-rule:nonzero;stroke:none"
       transform="matrix(0.00401496,0,0,-0.00401496,97.898186,203.35524)"
       clip-path="url(#clipPath100-3)"
       id="path507" />
    <path
       d="m 15402,12979 c 6.1,12 15.1,18 26.4,18 15.8,0 30.1,-12 30.1,-24.8 0,-7.5 -4.5,-20.4 -12,-36.2 l -240.2,-471.5 c -6,-11.4 -15.1,-17.4 -27.1,-17.4 -15.9,0 -29.4,12.8 -29.4,28.7 0,6 0.8,9.7 3.8,15.8 l 248.4,487.4"
       style="fill:#459ddc;fill-opacity:1;fill-rule:nonzero;stroke:none"
       transform="matrix(0.00401496,0,0,-0.00401496,97.898186,203.35524)"
       clip-path="url(#clipPath101-8)"
       id="path508" />
    <path
       d="m 15755.4,12979 c 6,12 15.1,18 26.3,18 15.9,0 30.1,-12 30.1,-24.8 0,-7.5 -4.5,-20.4 -12,-36.2 l -252.3,-494.8 c -6,-11.3 -15.1,-17.4 -27.2,-17.4 -15.8,0 -29.3,12.9 -29.3,28.7 0,6 0.7,9.8 3.8,15.8 l 260.6,510.7"
       style="fill:#459ddc;fill-opacity:1;fill-rule:nonzero;stroke:none"
       transform="matrix(0.00401496,0,0,-0.00401496,97.898186,203.35524)"
       clip-path="url(#clipPath102-4)"
       id="path509" />
    <path
       d="m 14412.5,15413.7 c 5.9,12.1 15,18 26.3,18 15.8,0 30.1,-12 30.1,-24.8 0,-7.5 -4.5,-20.3 -12.1,-36.2 l -252.2,-494.8 c -6.1,-11.3 -15.1,-17.3 -27.2,-17.3 -15.8,0 -29.3,12.8 -29.3,28.6 0,6 0.7,9.8 3.7,15.8 l 260.7,510.7"
       style="fill:#040606;fill-opacity:1;fill-rule:nonzero;stroke:none"
       transform="matrix(0.00401496,0,0,-0.00401496,97.898186,203.35524)"
       clip-path="url(#clipPath103-9)"
       id="path510" />
    <path
       d="m 14745.1,15370.6 c 6.1,12 15.1,18.1 26.4,18.1 15.8,0 30.2,-12 30.2,-24.8 0,-7.6 -4.6,-20.4 -12.1,-36.2 l -231.7,-451.8 c -6.1,-11.3 -15.1,-17.3 -27.2,-17.3 -15.8,0 -29.3,12.8 -29.3,28.6 0,6 0.7,9.8 3.7,15.8 l 240,467.6"
       style="fill:#040606;fill-opacity:1;fill-rule:nonzero;stroke:none"
       transform="matrix(0.00401496,0,0,-0.00401496,97.898186,203.35524)"
       clip-path="url(#clipPath104-3)"
       id="path511" />
    <path
       d="m 15072.2,15325.7 c 6.1,12 15.1,18.1 26.4,18.1 15.8,0 30.1,-12.1 30.1,-24.9 0,-7.6 -4.5,-20.3 -12,-36.2 l -205.5,-406.8 c -6.1,-11.3 -15.1,-17.3 -27.2,-17.3 -15.8,0 -29.4,12.8 -29.4,28.6 0,6 0.8,9.8 3.8,15.8 l 213.8,422.7"
       style="fill:#040606;fill-opacity:1;fill-rule:nonzero;stroke:none"
       transform="matrix(0.00401496,0,0,-0.00401496,97.898186,203.35524)"
       clip-path="url(#clipPath105-3)"
       id="path512" />
    <path
       d="m 15399.3,15277 c 6.1,12 15.1,18.1 26.4,18.1 15.8,0 30.1,-12.1 30.1,-24.9 0,-7.5 -4.6,-20.3 -12.1,-36.2 l -179.3,-358.1 c -6,-11.3 -15.1,-17.3 -27.1,-17.3 -15.8,0 -29.4,12.8 -29.4,28.6 0,6 0.8,9.8 3.8,15.8 l 187.6,374"
       style="fill:#040606;fill-opacity:1;fill-rule:nonzero;stroke:none"
       transform="matrix(0.00401496,0,0,-0.00401496,97.898186,203.35524)"
       clip-path="url(#clipPath106-3)"
       id="path513" />
    <path
       d="m 15733.9,15233.9 c 6,12.1 15,18.1 26.3,18.1 15.8,0 30.2,-12 30.2,-24.9 0,-7.5 -4.5,-20.3 -12.1,-36.1 l -160.6,-315.1 c -6,-11.3 -15,-17.3 -27.1,-17.3 -15.8,0 -29.3,12.8 -29.3,28.6 0,6 0.7,9.8 3.7,15.8 l 168.9,330.9"
       style="fill:#040606;fill-opacity:1;fill-rule:nonzero;stroke:none"
       transform="matrix(0.00401496,0,0,-0.00401496,97.898186,203.35524)"
       clip-path="url(#clipPath107-6)"
       id="path514" />
    <path
       d="m 16064.7,15187.1 c 6.1,12.1 15.1,18.1 26.4,18.1 15.8,0 30.1,-12.1 30.1,-24.9 0,-7.5 -4.5,-20.3 -12,-36.1 l -138.1,-268.3 c -6.1,-11.3 -15.1,-17.3 -27.1,-17.3 -15.9,0 -29.4,12.8 -29.4,28.6 0,6 0.8,9.8 3.7,15.8 l 146.4,284.1"
       style="fill:#040606;fill-opacity:1;fill-rule:nonzero;stroke:none"
       transform="matrix(0.00401496,0,0,-0.00401496,97.898186,203.35524)"
       clip-path="url(#clipPath108-9)"
       id="path515" />
    <path
       d="m 16395.5,15142.2 c 6,12 15.1,18.1 26.4,18.1 15.9,0 30.1,-12.1 30.1,-24.9 0,-7.5 -4.5,-20.4 -12,-36.1 l -115.7,-223.4 c -6,-11.3 -15,-17.3 -27.1,-17.3 -15.8,0 -29.3,12.8 -29.3,28.6 0,6 0.7,9.8 3.7,15.8 l 123.9,239.2"
       style="fill:#040606;fill-opacity:1;fill-rule:nonzero;stroke:none"
       transform="matrix(0.00401496,0,0,-0.00401496,97.898186,203.35524)"
       clip-path="url(#clipPath109-8)"
       id="path516" />
    <path
       d="m 16720.8,15095.4 c 6,12 15,18 26.4,18 15.7,0 30.1,-12 30.1,-24.8 0,-7.5 -4.5,-20.4 -12.1,-36.2 l -87.5,-176.5 c -6.1,-11.3 -15.1,-17.3 -27.2,-17.3 -15.8,0 -29.3,12.8 -29.3,28.6 0,6 0.7,9.8 3.7,15.8 l 95.9,192.4"
       style="fill:#040606;fill-opacity:1;fill-rule:nonzero;stroke:none"
       transform="matrix(0.00401496,0,0,-0.00401496,97.898186,203.35524)"
       clip-path="url(#clipPath110-9)"
       id="path517" />
    <path
       d="m 17051.6,15046.7 c 6,12.1 15.1,18.1 26.4,18.1 15.7,0 30,-12.1 30,-24.9 0,-7.5 -4.4,-20.3 -12,-36.2 l -65.1,-127.8 c -6,-11.3 -15.1,-17.3 -27.1,-17.3 -15.8,0 -29.4,12.8 -29.4,28.6 0,6 0.8,9.8 3.8,15.8 l 73.4,143.7"
       style="fill:#040606;fill-opacity:1;fill-rule:nonzero;stroke:none"
       transform="matrix(0.00401496,0,0,-0.00401496,97.898186,203.35524)"
       clip-path="url(#clipPath111-4)"
       id="path518" />
    <path
       d="m 17382.4,14999.9 c 6.1,12 15.1,18 26.4,18 15.8,0 30.1,-12 30.1,-24.8 0,-7.5 -4.5,-20.3 -12.1,-36.2 l -42.5,-81 c -6,-11.3 -15.1,-17.3 -27.2,-17.3 -15.8,0 -29.3,12.8 -29.3,28.6 0,6 0.7,9.8 3.8,15.8 l 50.8,96.9"
       style="fill:#040606;fill-opacity:1;fill-rule:nonzero;stroke:none"
       transform="matrix(0.00401496,0,0,-0.00401496,97.898186,203.35524)"
       clip-path="url(#clipPath112-0)"
       id="path519" />
    <path
       d="m 17711.4,14954.9 c 6.1,12.1 15.1,18.1 26.4,18.1 15.8,0 30,-12 30,-24.8 0,-7.6 -4.4,-20.4 -12,-36.2 l -18.2,-36.1 c -6.1,-11.3 -15.1,-17.3 -27.1,-17.3 -15.9,0 -29.4,12.8 -29.4,28.6 0,6 0.8,9.8 3.7,15.8 l 26.6,51.9"
       style="fill:#040606;fill-opacity:1;fill-rule:nonzero;stroke:none"
       transform="matrix(0.00401496,0,0,-0.00401496,97.898186,203.35524)"
       clip-path="url(#clipPath113-9)"
       id="path520" />
    <path
       d="m 18043.9,14913.9 c 5.9,12 15,18.1 26.3,18.1 15.8,0 30.1,-12.1 30.1,-24.9 0,-7.5 -4.5,-20.4 -12,-36.2 l 2.3,5 c -6,-11.3 -15.1,-17.3 -27.2,-17.3 -15.8,0 -29.3,12.8 -29.3,28.6 0,6 0.7,9.8 3.8,15.8 l 6,10.9"
       style="fill:#040606;fill-opacity:1;fill-rule:nonzero;stroke:none"
       transform="matrix(0.00401496,0,0,-0.00401496,97.898186,203.35524)"
       clip-path="url(#clipPath114-6)"
       id="path521" />
    <path
       d="m 16272.2,12764.9 c 12.4,-20.9 18.6,-30.9 31.7,-56.5 14.6,25.6 20,35.6 32.4,56.5 l 113.5,187.6 c 10.8,17.8 20.9,25.4 32.5,25.4 20.8,0 30.1,-17.7 30.1,-55.5 v -492.8 c 0,-18.5 -12.4,-31.7 -30.1,-31.7 -17.8,0 -30.1,13.2 -30.1,31.7 v 284.2 c 0,61.1 0.7,75.7 4.6,132.1 l -3.9,1.5 c -20.8,-44 -27.8,-56.3 -54,-99.5 l -53.3,-88.1 c -17,-27.9 -27.1,-37.1 -41.7,-37.1 -14,0 -24,9.2 -41,37.1 l -53.3,88.1 c -27,44.7 -33.2,55.5 -54,99.5 l -3.9,-1.5 c 3.9,-56.4 4.6,-71 4.6,-132.1 v -284.2 c 0,-18.5 -12.3,-31.7 -30.1,-31.7 -17.8,0 -30.2,13.2 -30.2,31.7 v 492.8 c 0,37.8 9.3,55.5 30.2,55.5 11.6,0 21.7,-7.6 32.4,-25.4 l 113.6,-187.6"
       style="fill:#459ddc;fill-opacity:1;fill-rule:nonzero;stroke:none"
       transform="matrix(0.00401496,0,0,-0.00401496,97.898186,203.35524)"
       clip-path="url(#clipPath115-2)"
       id="path522" />
    <path
       d="m 16741.1,12639.7 c -7.6,-22.4 -8.5,-25.5 -16.9,-44.1 20,1.6 25.5,1.6 47.9,1.6 h 81.8 c 21.7,0 26.2,0 45.6,-1.6 -7,17.8 -9.3,23.3 -15.4,42.5 l -35.6,109.8 c -17,53.2 -20.8,65.6 -32.4,115 h -3.9 c -12.3,-49.4 -16.2,-61.8 -34,-114.3 z m -33.9,-102.7 -38.6,-117.5 c -4.6,-13.9 -15.5,-22.3 -29.4,-22.3 -16.2,0 -30.1,13.9 -30.1,30.1 0,2.3 0.8,6.9 2.3,11.5 l 168.4,501.4 c 9.2,27 18.5,37 34.7,37 18.5,0 23.9,-6.1 34.8,-38.6 l 163,-500.5 c 1.5,-3.9 2.3,-7.7 2.3,-10.8 0,-16.2 -13.9,-30.1 -30.1,-30.1 -13.9,0 -24.7,8.4 -29.4,22.3 l -39.4,117.5 h -208.5"
       style="fill:#459ddc;fill-opacity:1;fill-rule:nonzero;stroke:none"
       transform="matrix(0.00401496,0,0,-0.00401496,97.898186,203.35524)"
       clip-path="url(#clipPath116-6)"
       id="path523" />
    <path
       d="m 17174.5,12703.1 c 0,-9.3 0,-11.7 -2.3,-20.2 8.5,2.3 10.8,2.3 19.4,2.3 h 89.5 c 78.8,0 128.3,44.9 128.3,116.7 0,71 -50.3,115.1 -131.4,115.1 h -86.4 c -8.6,0 -10.9,0 -19.4,2.3 2.3,-8.5 2.3,-10.8 2.3,-20.1 z m 281.2,-248.8 c 7,-14.6 9.3,-22.4 9.3,-30.1 0,-14.7 -11.5,-26.3 -27,-26.3 -13.9,0 -26.3,13.2 -43.3,46.4 l -91.9,180.7 h -111.2 c -8.6,0 -10.9,0 -19.4,2.3 2.3,-8.4 2.3,-10.8 2.3,-19.3 v -178.4 c 0,-18.5 -12.3,-31.7 -30,-31.7 -17.8,0 -30.2,13.2 -30.2,31.7 v 517.5 c 0.8,20.8 12.4,30.1 37.1,30.1 h 127.4 c 45.6,0 72.6,-6.1 102.8,-23.1 54.1,-31.7 88.1,-90.4 88.1,-153.8 0,-71 -37.1,-127.4 -105.9,-161.4 l 91.9,-184.6"
       style="fill:#459ddc;fill-opacity:1;fill-rule:nonzero;stroke:none"
       transform="matrix(0.00401496,0,0,-0.00401496,97.898186,203.35524)"
       clip-path="url(#clipPath117-0)"
       id="path524" />
    <path
       d="m 17647.3,12761 c 0,-8.5 0,-10.8 -2.3,-19.3 8.5,2.3 10.9,2.3 19.3,2.3 h 121.3 c 19.3,0 32.5,-12.4 32.5,-30.2 0,-17.7 -13.2,-30.1 -32.5,-30.1 h -120.4 c -9.3,0 -11.7,0 -20.2,2.4 2.3,-8.6 2.3,-10.9 2.3,-20.1 v -190.1 c 0,-9.2 0,-11.5 -2.3,-20.1 8.5,2.4 10.9,2.4 19.3,2.4 h 180 c 18.6,0 32.5,-12.4 32.5,-30.1 0,-17.8 -13.9,-30.2 -32.5,-30.2 h -220.1 c -23.9,0 -37.1,10.1 -37.1,30.2 v 519 c 0.8,20.8 12.4,30.1 37.1,30.1 h 220.1 c 18.6,0 32.5,-12.3 32.5,-30.1 0,-17.8 -13.2,-30.1 -32.5,-30.1 h -180 c -8.4,0 -10.8,0 -19.3,2.3 2.3,-8.5 2.3,-10.8 2.3,-20.1 V 12761"
       style="fill:#459ddc;fill-opacity:1;fill-rule:nonzero;stroke:none"
       transform="matrix(0.00401496,0,0,-0.00401496,97.898186,203.35524)"
       clip-path="url(#clipPath118-5)"
       id="path525" />
    <path
       d="m 18148,12429.6 c 0,-18.5 -12.4,-31.7 -30.2,-31.7 -17.7,0 -30.1,13.2 -30.1,31.7 v 250.3 l -171.4,249.4 c -4.7,6.2 -6.2,11.6 -6.2,17.8 0,17 13.1,30.8 30.1,30.8 10.8,0 19.3,-4.5 26.3,-15.3 l 122.7,-181.6 c 13.9,-20 17,-24.7 28.6,-44.7 11.6,20 14.7,24.7 28.6,44.7 l 122.9,181.6 c 6.9,10.8 15.4,15.3 26.2,15.3 17,0 30.1,-13.8 30.1,-30 0,-7 -2.3,-13.2 -6.1,-18.6 l -171.5,-249.4 v -250.3"
       style="fill:#459ddc;fill-opacity:1;fill-rule:nonzero;stroke:none"
       transform="matrix(0.00401496,0,0,-0.00401496,97.898186,203.35524)"
       clip-path="url(#clipPath119-8)"
       id="path526" />
    <path
       d="m 15682.2,14418 c 0,-8.5 0,-10.9 -2.3,-19.4 8.6,2.3 10.9,2.3 19.4,2.3 h 122.1 c 19.4,0 32.7,-12.4 32.7,-30.3 0,-17.9 -13.3,-30.3 -32.7,-30.3 h -121.3 c -9.3,0 -11.6,0 -20.2,2.3 2.3,-8.6 2.3,-10.9 2.3,-20.2 v -191.3 c 0,-9.3 0,-11.6 -2.3,-20.2 8.6,2.3 10.9,2.3 19.4,2.3 h 181.2 c 18.7,0 32.7,-12.4 32.7,-30.3 0,-17.8 -14,-30.3 -32.7,-30.3 h -221.6 c -24.1,0 -37.3,10.1 -37.3,30.3 v 522.5 c 0.8,21 12.4,30.3 37.3,30.3 h 221.6 c 18.7,0 32.7,-12.4 32.7,-30.3 0,-17.9 -13.2,-30.3 -32.7,-30.3 h -181.2 c -8.5,0 -10.8,0 -19.4,2.3 2.3,-8.5 2.3,-10.9 2.3,-20.2 V 14418"
       style="fill:#459ddc;fill-opacity:1;fill-rule:nonzero;stroke:none"
       transform="matrix(0.00401496,0,0,-0.00401496,97.898186,203.35524)"
       clip-path="url(#clipPath120-6)"
       id="path527" />
    <path
       d="m 16086.5,14557.2 c 0,9.3 0,11.7 2.4,20.2 -8.6,-2.3 -11,-2.3 -19.5,-2.3 h -96.4 c -18.7,0 -31.9,12.4 -31.9,30.3 0,17.9 13.2,30.3 31.9,30.3 h 289.2 c 18.7,0 31.9,-12.4 31.9,-30.3 0,-17.9 -13.2,-30.3 -31.9,-30.3 h -96.3 c -8.6,0 -11,0 -19.5,2.3 2.3,-8.5 2.3,-10.9 2.3,-20.2 v -472.7 c 0,-18.7 -12.4,-31.9 -31,-31.9 -18.8,0 -31.2,13.2 -31.2,31.9 v 472.7"
       style="fill:#459ddc;fill-opacity:1;fill-rule:nonzero;stroke:none"
       transform="matrix(0.00401496,0,0,-0.00401496,97.898186,203.35524)"
       clip-path="url(#clipPath121-7)"
       id="path528" />
    <path
       d="m 16384.2,14603.8 c 0,18.7 12.5,31.9 30.4,31.9 17.9,0 30.3,-13.2 30.3,-31.9 v -519.3 c 0,-18.7 -12.4,-31.9 -30.3,-31.9 -17.9,0 -30.4,13.2 -30.4,31.9 v 519.3"
       style="fill:#459ddc;fill-opacity:1;fill-rule:nonzero;stroke:none"
       transform="matrix(0.00401496,0,0,-0.00401496,97.898186,203.35524)"
       clip-path="url(#clipPath122-8)"
       id="path529" />
    <path
       d="m 16665.7,14418 c 0,-8.5 0,-10.9 -2.4,-19.4 8.6,2.3 10.9,2.3 19.5,2.3 h 122.1 c 19.4,0 32.6,-12.4 32.6,-30.3 0,-17.9 -13.2,-30.3 -32.6,-30.3 h -121.3 c -9.4,0 -11.7,0 -20.3,2.3 2.4,-8.6 2.4,-10.9 2.4,-20.2 v -191.3 c 0,-9.3 0,-11.6 -2.4,-20.2 8.6,2.3 10.9,2.3 19.5,2.3 h 181.1 c 18.7,0 32.7,-12.4 32.7,-30.3 0,-17.8 -14,-30.3 -32.7,-30.3 h -221.6 c -24.1,0 -37.3,10.1 -37.3,30.3 v 522.5 c 0.8,21 12.5,30.3 37.3,30.3 h 221.6 c 18.7,0 32.7,-12.4 32.7,-30.3 0,-17.9 -13.2,-30.3 -32.7,-30.3 h -181.1 c -8.6,0 -10.9,0 -19.5,2.3 2.4,-8.5 2.4,-10.9 2.4,-20.2 V 14418"
       style="fill:#459ddc;fill-opacity:1;fill-rule:nonzero;stroke:none"
       transform="matrix(0.00401496,0,0,-0.00401496,97.898186,203.35524)"
       clip-path="url(#clipPath123-9)"
       id="path530" />
    <path
       d="m 17051.3,14506.7 c 3.9,-59.1 4.7,-73.9 4.7,-138.4 v -283.8 c 0,-18.7 -12.5,-31.9 -30.3,-31.9 -17.9,0 -30.4,13.2 -30.4,31.9 v 496.1 c 0,37.3 9.4,55.1 28.8,55.1 12.4,0 24.9,-8.5 33.4,-22.5 l 169.5,-301.7 c 31.1,-56 38.1,-68.4 63,-122.1 l 3.9,0.8 c -3.9,59.1 -4.7,73.9 -4.7,137.6 v 276 c 0,18.7 12.5,31.9 30.4,31.9 17.8,0 30.3,-13.2 30.3,-31.9 v -495.2 c 0,-35.8 -10.9,-56 -30.3,-56 -13.3,0 -21.9,8.5 -36.6,34.2 l -164.9,297.8 c -31.1,55.2 -38.1,69.2 -63.7,123.6 l -3.1,-1.5"
       style="fill:#459ddc;fill-opacity:1;fill-rule:nonzero;stroke:none"
       transform="matrix(0.00401496,0,0,-0.00401496,97.898186,203.35524)"
       clip-path="url(#clipPath124-8)"
       id="path531" />
    <path
       d="m 17565.2,14506.7 c 3.9,-59.1 4.6,-73.9 4.6,-138.4 v -283.8 c 0,-18.7 -12.4,-31.9 -30.3,-31.9 -17.8,0 -30.3,13.2 -30.3,31.9 v 496.1 c 0,37.3 9.3,55.1 28.8,55.1 12.4,0 24.9,-8.5 33.4,-22.5 l 169.5,-301.7 c 31.1,-56 38.1,-68.4 63,-122.1 l 3.8,0.8 c -3.8,59.1 -4.6,73.9 -4.6,137.6 v 276 c 0,18.7 12.4,31.9 30.3,31.9 17.9,0 30.3,-13.2 30.3,-31.9 v -495.2 c 0,-35.8 -10.8,-56 -30.3,-56 -13.2,0 -21.7,8.5 -36.6,34.2 l -164.7,297.8 c -31.1,55.2 -38.2,69.2 -63.8,123.6 l -3.1,-1.5"
       style="fill:#459ddc;fill-opacity:1;fill-rule:nonzero;stroke:none"
       transform="matrix(0.00401496,0,0,-0.00401496,97.898186,203.35524)"
       clip-path="url(#clipPath125-5)"
       id="path532" />
    <path
       d="m 18083.7,14418 c 0,-8.5 0,-10.9 -2.3,-19.4 8.5,2.3 10.8,2.3 19.5,2.3 h 122 c 19.4,0 32.7,-12.4 32.7,-30.3 0,-17.9 -13.3,-30.3 -32.7,-30.3 h -121.3 c -9.4,0 -11.7,0 -20.2,2.3 2.3,-8.6 2.3,-10.9 2.3,-20.2 v -191.3 c 0,-9.3 0,-11.6 -2.3,-20.2 8.5,2.3 10.8,2.3 19.5,2.3 h 181.1 c 18.7,0 32.7,-12.4 32.7,-30.3 0,-17.8 -14,-30.3 -32.7,-30.3 h -221.6 c -24.1,0 -37.4,10.1 -37.4,30.3 v 522.5 c 0.9,21 12.5,30.3 37.4,30.3 h 221.6 c 18.7,0 32.7,-12.4 32.7,-30.3 0,-17.9 -13.3,-30.3 -32.7,-30.3 h -181.1 c -8.7,0 -11,0 -19.5,2.3 2.3,-8.5 2.3,-10.9 2.3,-20.2 V 14418"
       style="fill:#459ddc;fill-opacity:1;fill-rule:nonzero;stroke:none"
       transform="matrix(0.00401496,0,0,-0.00401496,97.898186,203.35524)"
       clip-path="url(#clipPath126-0)"
       id="path533" />
    <path
       d="m 16570.5,13784.1 c 0,18.6 12.5,31.9 30.4,31.9 17.8,0 30.2,-13.3 30.2,-31.9 v -397.3 c 0,-103.4 -47.3,-154 -143.8,-154 h -60.6 c -18.7,0 -31.9,12.5 -31.9,30.4 0,17.9 13.2,30.2 31.9,30.2 h 70.7 c 49.8,0 73.1,32.8 73.1,103.5 v 387.2"
       style="fill:#459ddc;fill-opacity:1;fill-rule:nonzero;stroke:none"
       transform="matrix(0.00401496,0,0,-0.00401496,97.898186,203.35524)"
       clip-path="url(#clipPath127-7)"
       id="path534" />
    <path
       d="m 16767.2,13784.1 c 0,18.6 12.4,31.9 30.3,31.9 17.9,0 30.4,-13.3 30.4,-31.9 v -357.7 c 0,-83.9 43.5,-133 116.6,-133 73.1,0 116.6,49.1 116.6,133 v 357.7 c 0,18.6 12.4,31.9 30.3,31.9 18,0 30.3,-13.3 30.3,-31.9 V 13428 c 0,-57.6 -9.3,-93.3 -34.2,-126.8 -31.1,-42.7 -85.5,-68.4 -143,-68.4 -57.5,0 -111.2,25.7 -143.1,68.4 -24.9,33.5 -34.2,69.2 -34.2,126.8 v 356.1"
       style="fill:#459ddc;fill-opacity:1;fill-rule:nonzero;stroke:none"
       transform="matrix(0.00401496,0,0,-0.00401496,97.898186,203.35524)"
       clip-path="url(#clipPath128-8)"
       id="path535" />
    <path
       d="m 17329.3,13310.6 c 0,-8.6 0,-10.9 -2.3,-19.4 8.5,2.2 10.9,2.2 19.4,2.2 h 181.2 c 18.7,0 32.6,-12.3 32.6,-30.2 0,-17.9 -13.9,-30.4 -32.6,-30.4 H 17306 c -24.1,0 -37.4,10.1 -37.4,30.4 v 520.9 c 0,18.6 12.4,31.9 30.4,31.9 17.9,0 30.3,-13.3 30.3,-31.9 v -473.5"
       style="fill:#459ddc;fill-opacity:1;fill-rule:nonzero;stroke:none"
       transform="matrix(0.00401496,0,0,-0.00401496,97.898186,203.35524)"
       clip-path="url(#clipPath129-6)"
       id="path536" />
    <path
       d="m 17707.9,13598.2 c 0,-8.5 0,-10.8 -2.3,-19.4 8.5,2.3 10.8,2.3 19.4,2.3 h 122.1 c 19.4,0 32.6,-12.4 32.6,-30.3 0,-17.8 -13.2,-30.3 -32.6,-30.3 h -121.3 c -9.4,0 -11.7,0 -20.2,2.3 2.3,-8.5 2.3,-10.8 2.3,-20.2 v -191.3 c 0,-9.3 0,-11.6 -2.3,-20.1 8.5,2.2 10.8,2.2 19.4,2.2 h 181.2 c 18.6,0 32.7,-12.3 32.7,-30.2 0,-17.9 -14.1,-30.4 -32.7,-30.4 h -221.6 c -24.1,0 -37.4,10.1 -37.4,30.4 v 522.5 c 0.9,20.9 12.5,30.3 37.4,30.3 h 221.6 c 18.6,0 32.7,-12.5 32.7,-30.3 0,-17.9 -13.3,-30.4 -32.7,-30.4 H 17725 c -8.6,0 -10.9,0 -19.4,2.4 2.3,-8.6 2.3,-10.9 2.3,-20.3 v -139.2"
       style="fill:#459ddc;fill-opacity:1;fill-rule:nonzero;stroke:none"
       transform="matrix(0.00401496,0,0,-0.00401496,97.898186,203.35524)"
       clip-path="url(#clipPath130-7)"
       id="path537" />
    <path
       d="m 18087.2,13540 c -63.7,42.7 -90.9,83.2 -90.9,132.1 0,82.4 72.3,143.9 170.3,143.9 76.9,0 157,-36.6 157,-70.8 0,-14.8 -11.6,-28.8 -23.3,-28.8 -7.8,0 -20.2,4.7 -33.4,12.5 -31.1,17.9 -62.2,26.4 -94.8,26.4 -65.4,0 -115.1,-34.2 -115.1,-79.3 0,-31.1 19.4,-56.7 68.4,-89.4 l 49.8,-34.2 77.7,-52.1 c 65.3,-43.6 84,-71.5 84,-123.7 0,-84.7 -73.9,-143.8 -180.4,-143.8 -80.1,0 -171.8,42.8 -171.8,79.3 0,14.8 11.6,27.3 24.8,27.3 10.9,0 14,-1.6 64.6,-24.1 36.5,-16.4 57.5,-21.9 87,-21.9 66.9,0 115.1,32.8 115.1,77.8 0,28.8 -16.3,49.8 -60.6,80.1 l -128.4,88.7"
       style="fill:#459ddc;fill-opacity:1;fill-rule:nonzero;stroke:none"
       transform="matrix(0.00401496,0,0,-0.00401496,97.898186,203.35524)"
       clip-path="url(#clipPath131-0)"
       id="path538" />
    <path
       d="m 16242.8,13835.2 h -292.2 c -22.4,0 -39.9,-16.2 -40,-38.3 0.1,-22.2 17.6,-38.3 40,-38.4 h 97.4 c 3.8,0 6.9,0 9.8,0.3 -0.2,-3.1 -0.2,-6.4 -0.2,-10.6 v -477.8 c 0,-22.4 16.3,-39.8 39.1,-39.9 22.8,0.1 39.1,17.5 39.1,39.9 v 477.8 c 0,4.2 0,7.5 -0.3,10.6 3,-0.3 6.1,-0.3 9.9,-0.3 h 97.4 c 22.5,0.1 39.9,16.2 40,38.4 -0.1,22.1 -17.5,38.3 -40,38.3 z m -444.7,0 c -22.1,0 -38.3,-17.5 -38.3,-39.9 v -278.9 c 0,-52.2 0.5,-72.3 2.8,-109.7 -16.2,33.8 -25.7,51.1 -51.3,96.9 l -171.2,304.9 c -9.8,15.9 -24.3,26.7 -40.5,26.7 -26.4,-0.3 -36.7,-25.7 -36.8,-63.5 v -501.3 c 0.1,-22.3 16.2,-39.8 38.3,-39.9 22.2,0.1 38.4,17.6 38.5,39.9 v 286.8 c 0,52.5 -0.6,72.7 -2.9,109.7 16.3,-33.9 26,-52.2 51.3,-97 l 166.5,-300.8 c 14.7,-25.9 25.7,-38.5 43.6,-38.6 26.8,0.6 38.4,27.7 38.5,64.3 v 500.5 c -0.1,22.3 -16.3,39.9 -38.5,39.9 z m -460.4,-76.7 c 23,0 40.7,16.2 40.7,38.4 0,22.4 -18.4,38.3 -40.7,38.3 h -223.9 c -26.7,1 -45.4,-13.3 -45.4,-38 l -0.1,-7.4 v -520.9 c -0.1,-11.8 4.3,-22.4 12.7,-29.1 8.4,-6.6 19.6,-9.3 32.8,-9.3 h 223.9 c 22.3,0.1 40.7,15.9 40.7,38.4 0,22.4 -18.4,38.3 -40.7,38.3 h -183.1 c -3.9,0.1 -6.9,0 -9.8,-0.2 0.2,3.1 0.2,6.3 0.2,10.6 v 193.2 c 0,4.3 0,7.6 -0.2,10.7 3.1,-0.3 6.4,-0.3 10.6,-0.3 h 122.6 c 23,0 40.7,16.2 40.7,38.3 0,22.3 -17.7,38.4 -40.7,38.4 h -123.4 c -3.9,0 -6.9,0 -9.8,-0.2 0.2,2.9 0.2,5.9 0.2,9.8 v 140.7 c 0,4.2 0,7.5 -0.2,10.6 2.9,-0.3 5.9,-0.3 9.8,-0.3 z m -454.1,77.5 c -15.7,-0.1 -28.4,-10.9 -39.6,-29.6 l -115.5,-191 c -10.5,-17.6 -16.1,-27.7 -26.1,-45.3 -9.4,17.6 -15.6,27.8 -25.9,45.3 l -6.6,-4 6.5,4 -115.4,191 c -11.3,18.7 -23.9,29.5 -39.6,29.6 -27.7,-0.1 -38.3,-25.8 -38.4,-64.2 v -501.4 c 0.1,-22.3 16.2,-39.8 38.4,-39.9 22.1,0.1 38.3,17.6 38.3,39.9 v 289.1 c 0,50.5 -0.5,70.2 -2.9,106.5 12.8,-25.7 21.6,-40.6 42.9,-75.8 l 54.2,-89.6 c 17.1,-28.2 29.4,-41.3 48.2,-41.4 19.4,0 31.9,13.1 49,41.3 l 54.2,89.7 c 20.7,34 29.8,49.7 42.7,75.8 -2.3,-36.3 -2.7,-56 -2.7,-106.5 v -289.1 c 0,-22.3 16.2,-39.8 38.3,-39.9 22.2,0.1 38.2,17.6 38.4,39.9 v 501.4 c -0.2,38.4 -10.8,64.1 -38.4,64.2 z m -525.7,-77.5 c 23,0.1 40.7,16.2 40.8,38.4 -0.1,22.4 -18.5,38.3 -40.8,38.3 H 14134 c -26.8,1 -45.4,-13.3 -45.4,-38 v -528.4 c -0.1,-11.7 4.1,-22.3 12.6,-29 8.4,-6.6 19.6,-9.3 32.8,-9.3 h 223.9 c 22.2,0.1 40.7,15.9 40.8,38.3 -0.1,22.5 -18.5,38.4 -40.8,38.4 h -183.1 c -3.8,0 -6.8,0 -9.8,-0.2 0.3,3.1 0.3,6.3 0.3,10.6 v 193.3 c 0,4.2 0,7.5 -0.3,10.6 3.1,-0.3 6.4,-0.3 10.6,-0.3 h 122.6 c 23,0 40.7,16.2 40.7,38.3 0,22.4 -17.7,38.4 -40.7,38.4 h -123.4 c -3.8,0 -6.8,0 -9.8,-0.2 0.3,2.9 0.3,5.9 0.3,9.8 v 140.7 c 0,4.2 0,7.5 -0.3,10.6 3,-0.3 6,-0.3 9.8,-0.3 z m -392,77.5 c -17.5,0.2 -31.9,-11.3 -37.2,-28 l -111.5,-343.5 c -15.2,-46 -20,-62.2 -28.5,-96.1 -8.6,33.9 -13.3,50.2 -28.5,96.2 l -112.4,343.3 c -5.3,16.8 -19.7,28.3 -37.1,28.1 -21.2,-0.2 -38.3,-17.3 -38.4,-37.8 0,-1 0.1,-1.6 0.1,-1.8 0,-4 0.9,-8.7 3.2,-13.2 l 175.5,-522.3 c 5.5,-17.3 19.4,-30.2 36.4,-30.4 17.7,0 33.1,11.8 38.7,28.9 l 176.1,524.8 c 1,4 1.9,8.3 1.9,12.7 0,22 -16.9,39 -38.3,39.1 z m -500.5,-0.8 c -22.2,0 -38.3,-17.5 -38.3,-39.9 v -361.4 c -0.9,-82.4 -40.4,-126.1 -110.2,-126.7 -69.9,0.6 -109.4,44.3 -110.2,126.7 v 361.4 c 0,22.4 -16.2,39.9 -38.3,39.9 -22.2,0 -38.3,-17.5 -38.4,-39.9 v -359.9 c -0.1,-58.8 9.8,-97.5 36.1,-132.6 33.8,-45.4 90.4,-72.2 150.8,-72.3 60.4,0.1 117.6,26.9 150.8,72.3 26.3,35.1 36.2,73.8 36,132.6 v 359.9 c 0,22.4 -16.2,39.9 -38.3,39.9 z m -515.3,-405.3 c -0.7,-78.2 -40.3,-122 -110.2,-122.7 -70.6,0.7 -109.2,44.2 -110.1,128.2 v 197.2 c 0.8,81.6 39.6,125.3 109.4,125.9 69.9,-0.6 110.1,-43.7 110.9,-122.7 z m -108.6,405.3 c -68,0 -131.8,-36.7 -163.9,-94.3 -17.2,-29.5 -24.5,-63.5 -24.5,-107.5 v -198 c -0.1,-47.1 7.3,-79.5 24.5,-110.6 32.9,-58.2 95.2,-94.3 163.9,-94.3 104.8,0.2 185.1,83.2 185.3,190.8 v 223.1 c -0.2,108.3 -79.7,190.7 -185.3,190.8 z m -342.5,0.7 c -15.8,0 -28.4,-10.7 -39.7,-29.5 l -115.4,-191 c -10.5,-17.7 -16.1,-27.7 -26.1,-45.3 -9.4,17.6 -15.6,27.9 -26,45.3 l -6.5,-4 6.5,4 -115.5,190.9 c -11.3,18.8 -23.8,29.6 -39.5,29.6 -27.7,0 -38.4,-25.7 -38.4,-64.2 v -501.3 c 0,-22.3 16.1,-39.8 38.4,-39.9 22.1,0.1 38.2,17.6 38.3,39.9 v 289.1 c 0,50.5 -0.6,70.2 -2.9,106.5 12.7,-25.7 21.5,-40.6 42.8,-75.8 l 54.2,-89.6 c 17.2,-28.3 29.5,-41.3 48.3,-41.4 19.3,0 31.9,13.1 48.9,41.4 l 54.3,89.5 c 20.6,34.2 29.8,49.8 42.7,75.9 -2.3,-36.3 -2.8,-56 -2.8,-106.5 v -289.1 c 0,-22.3 16.2,-39.8 38.4,-39.9 22.1,0.1 38.3,17.6 38.3,39.9 v 501.3 c 0,38.5 -10.7,64.2 -38.3,64.2 z m -741.8,-0.7 c -22.1,0 -38.3,-17.5 -38.3,-39.8 v -361.5 c -0.8,-82.4 -40.3,-126 -110.1,-126.7 -69.9,0.7 -109.4,44.3 -110.2,126.7 v 361.5 c 0,22.3 -16.2,39.8 -38.3,39.8 -22.2,0 -38.3,-17.5 -38.4,-39.8 v -360 c -0.1,-58.8 9.8,-97.5 36.1,-132.6 33.9,-45.4 90.4,-72.3 150.8,-72.3 60.4,0.1 117.6,26.9 150.7,72.3 26.3,35.1 36.2,73.8 36.1,132.6 v 360 c 0,22.3 -16.2,39.8 -38.4,39.8 z m -521.5,-431.1 c -1.7,-74.1 -20.9,-95.3 -85,-96.9 h -124.9 c -4.3,0 -7.5,0 -10.7,-0.2 0.3,3.1 0.3,6.3 0.3,10.6 v 430.6 c 0,4.2 0,7.5 -0.3,10.6 3.2,-0.3 6.4,-0.3 10.7,-0.3 h 124.9 c 64.1,-1.5 83.3,-22.8 85,-96.8 z m -96.8,431.1 h -154.8 c -26.7,1 -45.4,-13.3 -45.4,-38 v -528.4 c -0.1,-11.7 4.2,-22.3 12.6,-29 8.4,-6.6 19.6,-9.3 32.8,-9.3 h 154.8 c 59.8,0 103.4,11.3 132.4,38.3 28.9,27.2 41.1,68.6 41.1,125 v 278.1 c 0,56.4 -12.2,97.8 -41.1,125 -29,27.1 -72.6,38.3 -132.4,38.3 z m 4188.2,491.7 -78.6,52.6 -50.2,34.5 c -49.1,32.9 -65.8,56.4 -65.8,84 0.1,39.1 44.8,72.4 108.6,72.4 31.6,0 61.5,-8.2 92,-25.6 14.1,-8.2 27,-13.5 37.6,-13.7 18,0.8 30.8,18.2 31.3,36.8 -0.9,23.7 -24,41.5 -54.7,55.8 -31.1,14 -71.6,23.4 -111.8,23.4 -102,-0.1 -179.5,-64.7 -179.7,-153.1 -0.1,-52.7 30.1,-96.3 95.2,-139.8 l 129.7,-89.6 c 44.5,-30.7 57.9,-49.2 58,-74.6 -0.1,-39.2 -43,-70.7 -108.6,-70.8 -28.9,0 -48.2,4.9 -84.8,21.3 -50.6,22.5 -55.3,24.9 -68.5,25 -18.2,-0.3 -32.7,-16.3 -32.8,-35.3 1,-25.1 27,-44.6 61,-60.8 34.4,-15.9 78.6,-27 120.4,-27 110.1,0.2 189.8,62.3 190,153.1 0.5,54.9 -21.8,87.7 -88.3,131.4 z m -354.8,243.6 c 23,0 40.8,16 40.8,38.3 0,22.5 -18.5,38.3 -40.8,38.3 h -223.9 c -26.7,1 -45.4,-13.3 -45.4,-38.1 v -7.3 -520.9 c -0.1,-11.8 4.2,-22.4 12.7,-29 8.3,-6.7 19.6,-9.4 32.7,-9.4 h 223.9 c 22.3,0 40.8,15.9 40.8,38.4 0,22.4 -18.5,38.3 -40.8,38.3 h -183 c -3.9,0.1 -6.9,0 -9.9,-0.2 0.3,3.1 0.3,6.3 0.3,10.6 v 193.2 c 0,4.3 0,7.6 -0.3,10.8 3.2,-0.3 6.4,-0.4 10.7,-0.3 h 122.5 c 23,0 40.7,16.1 40.8,38.3 -0.1,22.3 -17.8,38.3 -40.8,38.3 h -123.3 c -3.9,0.1 -6.9,0 -9.9,-0.2 0.3,2.9 0.3,5.9 0.3,9.8 v 140.7 c 0,4.2 0,7.5 -0.3,10.6 3,-0.2 6,-0.3 9.9,-0.2 z m -345.8,-489.7 c 0,22.4 -18.4,38.2 -40.7,38.3 h -114.7 c -65,1.8 -82.5,21.1 -84.2,96.8 v 257.8 c 1.7,75.7 19.2,95.1 84.2,96.8 h 114.7 c 22.3,0 40.7,15.9 40.7,38.3 0,22.5 -18.4,38.3 -40.7,38.3 h -105.3 c -55.7,0 -98.6,-13 -127.6,-40.7 -29,-27.7 -42.7,-69.1 -42.7,-122.5 v -278.2 c 0,-53.1 13.9,-94.4 43,-122.3 29,-27.7 72,-41 127.3,-41 h 105.3 c 22.3,0 40.7,15.9 40.7,38.4 z m -811.3,502.9 v -501.4 c 0.1,-22.3 16.2,-39.9 38.3,-39.9 22.2,0 38.3,17.6 38.4,39.9 v 286.8 c 0,52.5 -0.5,72.7 -2.8,109.7 16.2,-33.9 25.9,-52.2 51.2,-97 l 166.6,-300.8 c 14.6,-25.9 25.7,-38.5 43.6,-38.6 26.8,0.6 38.3,27.6 38.4,64.3 v 500.5 c -0.1,22.4 -16.2,39.9 -38.4,39.9 -22.1,0 -38.3,-17.5 -38.3,-39.9 v -278.9 c 0,-52.2 0.5,-72.2 2.8,-109.7 -16.1,33.8 -25.8,51.1 -51.2,96.9 l -171.3,304.9 c -9.8,15.9 -24.3,26.7 -40.5,26.7 -26.5,-0.3 -36.7,-25.7 -36.8,-63.4 z m -394.5,25.4 v -528.3 c -0.1,-11.8 4.2,-22.4 12.6,-29.1 8.5,-6.6 19.7,-9.3 32.8,-9.3 h 224 c 22.3,0 40.7,15.9 40.7,38.4 0,22.4 -18.4,38.3 -40.7,38.3 H 13507 c -3.9,0.1 -6.8,0 -9.9,-0.2 0.3,3.1 0.3,6.3 0.3,10.5 v 193.3 c 0,4.3 0,7.6 -0.3,10.7 3.2,-0.3 6.5,-0.3 10.7,-0.3 h 122.6 c 22.9,0.1 40.6,16.2 40.7,38.4 -0.1,22.3 -17.8,38.3 -40.7,38.3 H 13507 c -3.9,0.1 -6.8,0 -9.9,-0.2 0.3,2.9 0.3,5.9 0.3,9.8 v 140.7 c 0,4.3 0,7.5 -0.3,10.7 3,-0.3 6,-0.4 9.9,-0.3 h 183.1 c 23,0 40.7,16 40.7,38.3 0,22.5 -18.4,38.3 -40.7,38.3 h -224 c -26.7,1 -45.4,-13.3 -45.4,-38 z m -223.1,-1.9 v -524.9 c 0,-22.3 16.2,-39.9 38.4,-39.9 22.1,0 38.3,17.6 38.3,39.9 v 524.9 c 0,22.3 -16.2,39.9 -38.3,39.9 -22.2,0 -38.4,-17.5 -38.4,-39.9 z m -231.9,-36.8 h 114.7 c 22.2,0.1 40.7,15.9 40.7,38.3 0,22.6 -18.5,38.4 -40.7,38.4 h -105.3 c -55.7,0 -98.6,-13 -127.6,-40.7 -29,-27.7 -42.8,-69.1 -42.8,-122.6 v -278.1 c 0,-53.1 14,-94.5 43.1,-122.3 29,-27.7 72,-41 127.3,-41 h 105.3 c 22.2,0 40.7,15.9 40.7,38.3 0,22.5 -18.5,38.3 -40.7,38.4 h -114.7 c -65,1.8 -82.4,21.1 -84.3,96.8 v 257.7 c 1.9,75.8 19.3,95.2 84.3,96.8 z m -234.3,-375 c 0.5,55 -21.8,87.8 -88.3,131.5 l -78.5,52.6 -50.3,34.5 c -49.1,32.9 -65.8,56.4 -65.8,84 0.1,39 44.8,72.4 108.6,72.5 31.7,-0.1 61.6,-8.2 92,-25.8 14.1,-8.1 27,-13.4 37.6,-13.6 18,0.9 30.9,18.2 31.3,36.8 -0.9,23.6 -24,41.5 -54.7,55.8 -31.1,14 -71.6,23.4 -111.7,23.4 -102.1,-0.2 -179.6,-64.7 -179.8,-153.1 -0.1,-52.7 30,-96.3 95.3,-139.8 l 129.6,-89.6 c 44.5,-30.8 57.9,-49.2 57.9,-74.6 0,-39.2 -42.9,-70.7 -108.5,-70.9 -28.8,0.1 -48.2,5.1 -84.8,21.4 -50.6,22.5 -55.2,24.9 -68.4,25 -18.3,-0.3 -32.7,-16.3 -32.9,-35.3 1.1,-25.1 27,-44.6 61,-60.8 34.3,-15.9 78.5,-27 120.4,-27 110.2,0.2 189.8,62.3 190,153 z m -585.3,0.1 c 0.4,54.9 -21.9,87.7 -88.4,131.4 l -78.5,52.6 -50.2,34.5 c -49.2,32.9 -65.8,56.4 -65.8,84 0.1,39.1 44.7,72.4 108.6,72.4 31.6,0 61.5,-8.1 92,-25.7 14,-8.1 26.9,-13.4 37.6,-13.6 18,0.9 30.8,18.2 31.3,36.8 -0.9,23.7 -24,41.5 -54.7,55.8 -31.2,14 -71.6,23.4 -111.7,23.4 -102.1,-0.1 -179.7,-64.7 -179.8,-153.1 -0.2,-52.7 30,-96.3 95.2,-139.8 l 129.7,-89.6 c 44.4,-30.8 57.8,-49.2 57.9,-74.6 -0.1,-39.2 -42.9,-70.7 -108.5,-70.8 -28.9,0 -48.2,4.9 -84.9,21.3 -50.6,22.5 -55.2,24.9 -68.3,25 -18.4,-0.3 -32.8,-16.3 -32.9,-35.3 1.1,-25.1 27,-44.6 61,-60.8 34.3,-15.9 78.5,-27 120.3,-27 110.2,0.1 189.8,62.3 190.1,153.1 z m -443,374.9 c 22.9,0.1 40.6,16.1 40.7,38.4 -0.1,22.5 -18.5,38.3 -40.7,38.3 h -224 c -26.7,1 -45.4,-13.3 -45.5,-38 v -528.3 c 0,-11.8 4.3,-22.4 12.7,-29.1 8.4,-6.6 19.6,-9.3 32.8,-9.3 h 224 c 22.2,0 40.6,15.9 40.7,38.4 -0.1,22.4 -18.5,38.3 -40.7,38.3 H 11520 c -3.9,0 -6.9,0 -9.9,-0.2 0.3,3.1 0.3,6.3 0.3,10.6 v 193.2 c 0,4.3 0,7.6 -0.3,10.7 3.2,-0.3 6.4,-0.3 10.7,-0.2 h 122.6 c 22.9,0 40.6,16.1 40.7,38.3 -0.1,22.2 -17.8,38.3 -40.7,38.4 H 11520 c -3.9,0 -6.9,-0.1 -9.9,-0.3 0.3,2.9 0.3,5.9 0.3,9.8 v 140.7 c 0,4.2 0,7.5 -0.3,10.6 3,-0.3 6,-0.3 9.9,-0.3 z m -467.4,-354.5 c -1.7,-73.9 -20.9,-95.2 -85,-96.8 h -124.9 c -4.3,0.1 -7.5,0 -10.7,-0.3 0.3,3.2 0.3,6.4 0.3,10.6 v 430.7 c 0,4.3 0,7.5 -0.3,10.6 3.2,-0.3 6.4,-0.3 10.7,-0.3 h 124.9 c 64.1,-1.5 83.3,-22.8 85,-96.8 z m -96.8,431.3 h -154.8 c -26.7,0.9 -45.4,-13.5 -45.4,-38.2 v -528.2 c -0.1,-11.8 4.2,-22.4 12.6,-29 8.4,-6.7 19.6,-9.4 32.8,-9.4 h 154.8 c 59.8,0 103.4,11.3 132.4,38.3 28.9,27.2 41.1,68.7 41.1,125 v 278.1 c 0,56.4 -12.2,97.8 -41.1,125 -29,27.1 -72.6,38.3 -132.4,38.4 z m 2397.2,735.2 h 97.4 c 3.9,-0.1 6.9,0 9.9,0.2 -0.3,-3.1 -0.3,-6.3 -0.3,-10.6 v -477.8 c 0.1,-22.3 16.3,-39.8 39.1,-39.8 22.8,0 39.1,17.5 39.1,39.8 v 477.8 c 0.1,4.3 0,7.5 -0.2,10.6 2.9,-0.2 6,-0.3 9.8,-0.2 h 97.5 c 22.3,0 39.8,16.1 39.9,38.3 -0.1,22.2 -17.6,38.3 -39.9,38.4 h -292.3 c -22.4,-0.1 -39.8,-16.2 -39.9,-38.4 0.1,-22.2 17.5,-38.3 39.9,-38.3 z m -288.4,-528.1 c 60.4,0.1 117.7,26.9 150.9,72.4 26.2,35.1 36.1,73.7 36,132.6 v 359.8 c -0.1,22.3 -16.2,40 -38.4,40 -22.1,0 -38.3,-17.7 -38.3,-40 v -361.4 c -0.8,-82.3 -40.3,-126 -110.2,-126.7 -69.9,0.7 -109.3,44.4 -110.1,126.7 v 361.4 c -0.1,22.3 -16.2,40 -38.4,40 -22.1,0 -38.3,-17.7 -38.3,-40 v -359.8 c -0.2,-58.9 9.7,-97.5 36.1,-132.7 33.8,-45.4 90.3,-72.3 150.7,-72.3 z m -583,528.1 h 97.5 c 3.9,0 6.8,0 9.8,0.2 -0.3,-3.1 -0.3,-6.3 -0.3,-10.6 v -477.8 c 0.1,-22.3 16.4,-39.8 39.2,-39.8 22.8,0 39.1,17.5 39.1,39.8 v 477.8 c 0.1,4.3 0,7.5 -0.3,10.6 3,-0.2 6,-0.2 9.8,-0.2 h 97.5 c 22.4,0 39.9,16.1 40,38.3 -0.1,22.1 -17.6,38.3 -40,38.4 h -292.3 c -22.3,-0.1 -39.8,-16.3 -39.9,-38.4 0.1,-22.2 17.6,-38.3 39.9,-38.3 z m -153.2,-528.1 c 22.2,0.1 38.3,17.6 38.4,39.9 v 524.9 c -0.1,22.4 -16.2,40 -38.4,40 -22.1,0 -38.3,-17.6 -38.3,-40 v -524.9 c 0,-22.3 16.2,-39.8 38.3,-39.9 z m -446.2,528.1 h 97.4 c 3.8,-0.1 6.9,0 9.8,0.2 -0.3,-3.1 -0.3,-6.3 -0.3,-10.6 v -477.8 c 0.1,-22.3 16.4,-39.8 39.2,-39.9 22.8,0.1 39.1,17.6 39.1,39.9 v 477.8 c 0.1,4.3 0,7.5 -0.3,10.6 3,-0.2 6,-0.3 9.9,-0.2 h 97.5 c 22.2,0 39.9,16.1 39.9,38.3 0,22.2 -17.7,38.3 -39.9,38.4 h -292.3 c -22.4,-0.1 -39.9,-16.2 -40,-38.4 0.1,-22.2 17.6,-38.3 40,-38.3 z m -376.6,-501.1 c 34.4,-15.9 78.6,-26.9 120.4,-27 110.2,0.2 189.8,62.3 190,153.1 0.5,55 -21.7,87.6 -88.3,131.4 l -78.5,52.6 -50.3,34.5 c -49.1,32.9 -65.8,56.5 -65.8,84 0.1,39.1 44.8,72.4 108.6,72.5 31.7,0 61.6,-8.3 92.1,-25.8 14,-8.1 26.9,-13.4 37.5,-13.5 18,0.7 30.9,18.1 31.3,36.7 -0.8,23.7 -24,41.4 -54.6,55.7 -31.2,14.1 -71.7,23.6 -111.8,23.6 -102,-0.2 -179.6,-64.8 -179.8,-153.1 -0.1,-52.8 30.1,-96.4 95.3,-140 v 0 l 129.6,-89.5 c 44.5,-30.8 57.9,-49.2 58,-74.6 -0.1,-39.1 -42.9,-70.6 -108.6,-70.9 -28.8,0.1 -48.1,5 -84.8,21.4 -50.6,22.5 -55.2,24.9 -68.4,25 -18.3,-0.2 -32.8,-16.3 -32.8,-35.2 1,-25.1 27,-44.7 60.9,-60.9 z m -488.5,-27 c 22.2,0.1 38.3,17.6 38.3,39.9 v 286.8 c 0,52.4 -0.5,72.8 -2.8,109.7 16.4,-33.9 26,-52.1 51.3,-96.9 l 166.5,-300.9 c 14.7,-25.9 25.7,-38.5 43.7,-38.6 26.8,0.6 38.3,27.6 38.4,64.3 v 500.5 c -0.1,22.4 -16.2,39.9 -38.4,40 -22.2,-0.1 -38.3,-17.6 -38.3,-40 v -278.9 c 0,-52.1 0.5,-72.2 2.7,-109.6 -16.1,33.8 -25.7,51.1 -51.2,96.8 l -171.3,305 c -9.7,15.8 -24.2,26.6 -40.4,26.7 -26.6,-0.4 -36.8,-25.8 -36.9,-63.5 v -501.4 c 0.1,-22.3 16.2,-39.8 38.4,-39.9 z m -223.1,0 c 22.1,0.1 38.2,17.6 38.3,39.9 v 524.9 c -0.1,22.3 -16.2,39.9 -38.3,40 -22.2,-0.1 -38.4,-17.6 -38.4,-40 v -524.9 c 0,-22.3 16.2,-39.8 38.4,-39.9"
       style="fill:#040606;fill-opacity:1;fill-rule:nonzero;stroke:none"
       transform="matrix(0.00401496,0,0,-0.00401496,97.898186,203.35524)"
       clip-path="url(#clipPath132-8)"
       id="path539" />
  </g>
</svg>
